<?xml version="1.0" encoding="UTF-8" standalone="no"?>
<!-- Created with Inkscape (http://www.inkscape.org/) -->

<svg
   version="1.1"
   id="svg87"
   width="682.66669"
   height="682.66669"
   viewBox="0 0 682.66669 682.66669"
   sodipodi:docname="logo.svg"
   inkscape:version="1.2.2 (b0a8486541, 2022-12-01)"
   xmlns:inkscape="http://www.inkscape.org/namespaces/inkscape"
   xmlns:sodipodi="http://sodipodi.sourceforge.net/DTD/sodipodi-0.dtd"
   xmlns="http://www.w3.org/2000/svg"
   xmlns:svg="http://www.w3.org/2000/svg">
  <defs
     id="defs91" />
  <sodipodi:namedview
     id="namedview89"
     pagecolor="#ffffff"
     bordercolor="#000000"
     borderopacity="0.25"
     inkscape:showpageshadow="2"
     inkscape:pageopacity="0.0"
     inkscape:pagecheckerboard="0"
     inkscape:deskcolor="#d1d1d1"
     showgrid="false"
     inkscape:zoom="1.171875"
     inkscape:cx="220.16001"
     inkscape:cy="360.96001"
     inkscape:window-width="1920"
     inkscape:window-height="1003"
     inkscape:window-x="0"
     inkscape:window-y="0"
     inkscape:window-maximized="1"
     inkscape:current-layer="g271" />
  <g
     inkscape:groupmode="layer"
     inkscape:label="Image"
     id="g93">
    <g
       id="g271"
       transform="translate(-37.116413,1.9784638)">
      <path
         style="fill:#cccccc;fill-opacity:1"
         d="m 283.74381,367.61556 387.27741,6.69406 0.70927,40.89308 -20.72052,18.305 -175.75699,5.22854 35.79011,104.93849 -69.95011,6.85854 -68.68729,-0.54953 -8.47797,-110.86516 -47.1763,-60.01401 z"
         id="path1929" />
      <path
         style="display:inline;fill:#5dccdb;fill-opacity:1"
         d="m 243.89569,369.72957 375.9023,-0.0748 -3.67417,-317.282462 -22.84385,-21.186393 -345.85194,0.266575 -15.35656,22.557878 -3.91672,231.822552 66.7849,5.02924 z"
         id="path1814" />
      <path
         style="fill:#faad24;fill-opacity:1"
         d="m 174.20391,289.46715 120.52282,0.0747 -17.60693,63.34628 72.86245,56.72834 21.66651,64.35276 1.54964,113.54563 15.62448,27.76182 4.01344,23.2725 -12.72282,9.02714 -287.420002,2.48401 -13.457812,-4.90287 -4.058959,-15.6076 v -15.8925 l 17.063021,-19.75495 8.377912,-142.67016 33.826,-64.34115 30.49682,-16.8438 27.02297,-14.49964 z"
         id="path1567" />
      <ellipse
         style="fill:#faad24;fill-opacity:1"
         id="path1505"
         cx="477.26312"
         cy="616.18756"
         rx="26.444584"
         ry="25.46612" />
      <ellipse
         style="fill:#faad24;fill-opacity:1"
         id="path1507"
         cx="595.01099"
         cy="585.44159"
         rx="26.481146"
         ry="25.214792" />
      <rect
         style="fill:#46a3c2;fill-opacity:1"
         id="rect1168"
         width="28.046875"
         height="80.431122"
         x="370.89383"
         y="245.36678" />
      <rect
         style="fill:#46a3c2;fill-opacity:1"
         id="rect1170"
         width="34.352917"
         height="129.03726"
         x="450.4628"
         y="196.10854" />
      <rect
         style="fill:#46a3c2;fill-opacity:1"
         id="rect1172"
         width="28.528854"
         height="191.07664"
         x="539.7865"
         y="133.31401" />
      <rect
         style="fill:#46a3c2;fill-opacity:1"
         id="rect1165"
         width="38.645729"
         height="132.46211"
         x="282.33023"
         y="205.73103" />
      <rect
         style="fill:#328bd3;fill-opacity:1"
         id="rect972"
         width="50.747501"
         height="288.63013"
         x="614.36523"
         y="83.65197" />
      <rect
         style="fill:#328bd3;fill-opacity:1"
         id="rect968"
         width="56.548386"
         height="196.77711"
         x="178.12485"
         y="82.433357" />
      <path
         style="display:inline;fill:#0a0c0c;stroke-width:1.33333"
         d="m 80.538621,655.15381 c -11.203687,-5.58303 -17.615995,-16.11129 -17.563086,-28.83654 0.03476,-8.36181 3.032283,-15.48626 9.97545,-23.70949 10.895935,-12.90473 10.56195,-10.6348 11.476459,-78 0.845893,-62.31076 0.871451,-62.59567 7.415121,-82.66667 12.099785,-37.11294 41.985525,-70.76055 77.147135,-86.85807 4.11533,-1.88405 7.80242,-4.25945 8.19353,-5.27867 0.39111,-1.01921 -3.55221,-15.06987 -8.76293,-31.22369 -5.21073,-16.15383 -9.47405,-30.85612 -9.47405,-32.67175 0,-1.81564 1.1231,-4.42425 2.49575,-5.79691 3.50273,-3.50273 18.74288,-4.23758 83.50426,-4.02641 57.74143,0.18828 58.01797,0.22221 60.76955,7.45941 1.08753,2.86043 -0.43388,8.87175 -8.72619,34.47848 -5.52385,17.05771 -10.04336,31.36063 -10.04336,31.78427 0,0.42363 4.95,3.25784 11,6.29826 40.06907,20.13658 67.55103,54.4714 79.25931,99.02328 1.74721,6.64839 2.28757,19.29316 2.94063,68.8118 0.89729,68.03876 0.56328,65.7262 11.34604,78.55684 8.01546,9.5378 9.37102,13.02342 9.41464,24.20828 0.0349,8.94931 -0.4198,10.84187 -3.99587,16.63142 -2.50445,4.05467 -6.51108,8.06376 -10.56172,10.56821 l -6.52647,4.03526 -146.14196,0.35053 -146.141975,0.35055 z M 368.00686,638.79469 c 9.13367,-0.24179 13.60607,-4.17743 13.60607,-11.97312 0,-4.23864 -1.14139,-6.6272 -5.96899,-12.49124 -13.49336,-16.39027 -15.17198,-25.8401 -14.63521,-82.38922 0.53573,-56.44092 -1.7004,-74.51449 -11.96899,-96.7395 -13.01405,-28.16721 -38.27424,-52.64929 -66.40625,-64.36068 -5.59268,-2.32824 -10.6971,-4.23316 -11.34312,-4.23316 -2.6132,0 -7.01195,-5.6643 -7.0295,-9.05194 -0.0107,-1.9881 3.96372,-16.09071 8.83115,-31.33914 4.86743,-15.24843 8.42651,-28.14843 7.90908,-28.66667 -1.42493,-1.42716 -94.42015,-1.81849 -96.59999,-0.4065 -1.54979,1.00386 -0.32491,6.02378 7,28.68808 4.88316,15.10921 8.87848,29.27077 8.87848,31.47012 0,5.18944 -2.52572,7.20649 -15.65028,12.49837 -33.20472,13.38831 -59.59591,39.98048 -72.25742,72.80769 -7.85749,20.37193 -8.45804,26.08906 -9.38384,89.33333 -0.73306,50.078 -1.15906,58.79954 -3.118918,63.8537 -2.796413,7.21149 -6.439148,13.18373 -12.374477,20.28786 -5.356462,6.41127 -6.126566,13.61314 -2.000759,18.71074 2.098685,2.593 4.154637,3.26519 11.666667,3.81437 7.741787,0.56599 250.204977,0.7333 270.846297,0.18691 z M 224.68042,584.2965 c -0.87955,-0.6028 -2.01883,-5.27936 -2.53175,-10.39236 -0.51292,-5.113 -1.59329,-9.73717 -2.40084,-10.27595 -0.80753,-0.53877 -5.21824,-0.98877 -9.80157,-1 l -8.33334,-0.0204 v -9.19631 -9.1963 l 22.10987,-0.47036 22.10987,-0.47036 3.89013,-4.35438 c 4.42025,-4.94775 5.13967,-11.26832 1.82176,-16.00531 -3.01203,-4.30026 -5.16396,-5.11653 -19.93163,-7.56041 -18.31998,-3.03175 -24.88058,-5.39003 -30.68969,-11.03176 -6.83139,-6.63456 -9.91492,-13.99517 -9.93467,-23.71481 -0.0309,-15.21284 9.03987,-27.56783 23.17284,-31.5629 7.46538,-2.11029 8.78486,-4.21688 8.78486,-14.02528 v -8.41183 h 9.33333 9.33333 v 8.57143 c 0,11.2511 1.51082,12.76191 12.76191,12.76191 h 8.57143 v 9.19631 9.1963 l -21.9132,0.47036 -21.91322,0.47036 -4.08678,3.91612 c -5.53678,5.30555 -5.70927,12.67216 -0.42014,17.94298 3.10644,3.09568 5.87502,4.01537 18.1202,6.01932 18.85027,3.08489 24.92018,5.26316 30.92971,11.09954 6.89224,6.69367 9.88547,13.95476 9.92082,24.06636 0.032,9.15661 -3.65948,18.42782 -9.5054,23.87293 -3.54913,3.30578 -13.99114,8.3427 -17.38663,8.38681 -3.26523,0.0424 -3.88043,1.70692 -4.16092,11.25801 -0.13811,4.70284 -0.7018,9.00098 -1.25266,9.55139 -1.46629,1.46513 -14.72644,2.19103 -16.59762,0.9086 z M 464.808,656.79669 c -28.947,-9.48244 -38.03634,-47.34764 -16.5284,-68.85558 8.27376,-8.27376 16.20709,-11.3354 29.33333,-11.3203 13.41491,0.0155 20.83434,2.8213 28.96834,10.9553 8.62896,8.62896 11.69833,16.42111 11.69833,29.69834 0,9.29778 -0.58023,12.51225 -3.23055,17.89721 -4.10766,8.34604 -11.20726,15.4526 -19.3992,19.41824 -7.84668,3.79852 -22.73154,4.86356 -30.84185,2.20679 z m 24.24701,-20.92279 c 6.5761,-4.06424 9.89126,-10.29805 9.89126,-18.59945 0,-12.9313 -8.40204,-21.33334 -21.33334,-21.33334 -12.93129,0 -21.33333,8.40204 -21.33333,21.33334 0,8.2134 3.23819,14.39553 9.71237,18.54221 5.85592,3.75068 17.04202,3.77844 23.06304,0.0572 z m 93.08633,-11.07721 c -29.02371,-9.50756 -38.09334,-47.29064 -16.5284,-68.85558 8.27376,-8.27376 16.20709,-11.3354 29.33333,-11.3203 13.41491,0.0155 20.83433,2.8213 28.96833,10.9553 8.62896,8.62896 11.69834,16.42111 11.69834,29.69834 0,9.29778 -0.58023,12.51225 -3.23055,17.89721 -4.10767,8.34604 -11.20727,15.4526 -19.3992,19.41824 -7.84668,3.79852 -22.73155,4.86356 -30.84185,2.20679 z m 24.24701,-20.92279 c 6.57609,-4.06424 9.89125,-10.29805 9.89125,-18.59945 0,-12.9313 -8.40204,-21.33334 -21.33333,-21.33334 -12.93129,0 -21.33333,8.40204 -21.33333,21.33334 0,8.2134 3.23818,14.39553 9.71237,18.54221 5.85592,3.75068 17.04201,3.77844 23.06304,0.0572 z M 404.2796,542.60778 v -9.33334 h 43.22428 c 23.77336,0 44.17336,-0.36418 45.33333,-0.80932 1.15999,-0.44512 2.09216,-1.79512 2.07152,-3 -0.0207,-1.20486 -5.37846,-19.86789 -11.90629,-41.47338 -7.72007,-25.55151 -12.68969,-39.88298 -14.21731,-41 -1.78002,-1.30159 -11.16289,-1.7173 -38.76037,-1.7173 h -36.41183 v -9.33333 -9.33334 l 122.33334,-0.008 c 84.68848,-0.005 123.95527,-0.45773 127.60411,-1.47076 6.74001,-1.87125 13.37977,-8.51101 15.25103,-15.25102 2.27037,-8.17766 1.90232,-23.98951 -0.61704,-26.50887 -1.87943,-1.87887 -17.24103,-2.09468 -149.1434,-2.09468 H 361.99281 l -0.85671,-8.19659 c -0.55438,-5.30401 -0.33022,-8.83097 0.63516,-9.9942 1.23188,-1.48432 27.20015,-1.85672 149.00011,-2.13674 l 147.50824,-0.33914 0.33984,-130.79318 0.33982,-130.79317 -3.03822,-4.508434 C 650.6429,86.680754 644.91672,83.770422 635.6655,84.218095 l -8.05256,0.389668 -0.66667,127.333337 -0.66667,127.33334 -8.44974,0.39997 c -5.21326,0.24677 -9.19379,-0.21752 -10.39227,-1.21216 -1.68081,-1.39495 -1.91619,-20.42437 -1.74704,-141.24406 0.21985,-157.040635 0.93579,-145.921566 -9.85532,-153.062746 l -5.36093,-3.547683 -166.09736,0.0116 -166.09735,0.0116 -4.93279,3.05563 c -2.71304,1.680596 -6.28836,5.248983 -7.94516,7.929747 l -3.01237,4.874117 -0.13665,97.445695 c -0.0752,53.59514 -0.53628,98.09231 -1.02471,98.88261 -1.19585,1.93493 -15.55037,2.16918 -17.81379,0.29072 -1.47776,-1.22647 -1.8012,-16.54931 -1.8012,-85.33163 V 83.941096 h -8.46949 c -9.67397,0 -15.35276,2.926059 -20.49877,10.562241 l -3.03174,4.498783 v 76.30623 c 0,64.36146 -0.29696,76.5527 -1.89709,77.88067 -1.29169,1.07202 -4.4956,1.28047 -10.03991,0.6532 l -8.14281,-0.92125 0.37324,-79.48994 c 0.3668,-78.118352 0.42268,-79.596893 3.2388,-85.688822 3.69571,-7.994711 12.4132,-16.666107 20.26888,-20.161686 3.82281,-1.70105 10.15125,-2.992385 16.51008,-3.368918 5.67116,-0.335815 10.81676,-1.284058 11.43469,-2.107207 0.61794,-0.82315 1.84654,-4.773151 2.73023,-8.77778 3.14568,-14.255194 14.04381,-26.061996 27.90744,-30.234337 9.21096,-2.772093 335.64051,-2.686253 344.86759,0.09069 13.69036,4.120196 24.57933,15.963838 27.59838,30.018046 0.8751,4.073712 2.16542,8.156748 2.86738,9.073415 0.78406,1.023875 4.53656,1.666667 9.72969,1.666667 16.53235,0 30.76916,8.761328 37.95,23.354425 l 3.2701,6.645571 V 254.60777 415.27444 l -3.23055,6.56388 c -4.11248,8.35581 -11.18309,15.42643 -19.53891,19.53891 l -6.56388,3.23055 -78,0.66666 c -76.74015,0.6559 -78.00571,0.70974 -78.35355,3.33334 -0.50968,3.8442 23.21335,82.21117 25.28439,83.52481 0.9547,0.60556 6.38582,1.11021 12.06916,1.12144 l 10.33333,0.0204 v 9.33334 9.33333 h -68 -68 z M 319.00755,338.13573 c -1.64524,-1.64524 -1.89424,-16.39513 -0.29349,-17.38445 0.60563,-0.3743 7.60136,-1.00544 15.54608,-1.40255 7.94472,-0.39711 14.7584,-1.03547 15.14151,-1.41857 0.3831,-0.38311 0.78484,-17.63738 0.89274,-38.3428 0.20662,-39.64894 0.62479,-42.59083 6.31712,-44.44143 4.51325,-1.46726 42.27474,-1.72916 47.97874,-0.33276 2.85847,0.69978 5.6314,2.44064 6.51377,4.08937 1.45535,2.71935 1.96302,16.07952 2.35734,62.03856 l 0.15157,17.66667 h 10.66667 10.66666 l 0.17728,-28.33333 c 0.0975,-15.58334 0.27394,-44.83334 0.39208,-65.00001 0.15256,-26.04145 0.68732,-37.52288 1.8454,-39.62138 0.94052,-1.70428 3.73699,-3.47828 6.60792,-4.19188 5.66123,-1.40716 45.07435,-1.02182 48.68103,0.47596 5.44904,2.26288 5.61359,4.21097 6.0535,71.67064 l 0.42386,65 h 10.57614 10.57613 l 0.16097,-70.33333 c 0.30952,-135.22737 -0.0743,-128.58418 7.54418,-130.59083 1.9955,-0.5256 13.5776,-0.9676 25.73797,-0.98223 24.86555,-0.0299 28.16156,0.92981 29.70548,8.64942 0.46827,2.34133 0.8514,50.9085 0.8514,107.92705 0,88.41732 -0.28138,103.9036 -1.91253,105.25733 -2.55452,2.12006 -261.23236,1.72771 -263.35952,-0.39945 z m 72.96298,-51.91781 0.3576,-31.72319 -10.3576,0.38985 -10.3576,0.38986 -0.3576,31.72318 -0.3576,31.72319 10.3576,-0.38985 10.3576,-0.38986 z m 85.32312,-26.66648 0.34739,-58.38969 -10.34739,0.38968 -10.34739,0.38967 -0.34738,58.38967 -0.34739,58.38968 10.34739,-0.38968 10.34739,-0.38967 z m 85.65262,-31.66642 v -90.72276 l -10.33334,0.38942 -10.33333,0.38942 -0.34265,90.33333 -0.34266,90.33334 h 10.67599 10.67599 z m -296.65346,25.41079 c -1.62758,-2.63347 -1.79094,-49.73855 -0.18966,-54.68804 2.16566,-6.69399 6.51312,-7.68879 32.14047,-7.35442 22.14743,0.28898 26.50829,1.20778 27.99715,5.89874 0.44464,1.40094 1.01057,14.2901 1.25764,28.64258 0.34609,20.10477 0.0549,26.42267 -1.26839,27.52091 -0.94793,0.78672 -5.50395,1.24624 -10.16735,1.0255 l -8.44974,-0.39998 -0.36747,-21.05547 -0.36748,-21.05548 -10.29919,0.38882 -10.2992,0.3888 -0.66666,20.66666 -0.66667,20.66667 -8.88528,0.39164 c -5.30212,0.23371 -9.24132,-0.18445 -9.76817,-1.03693 z m 3.65773,-170.318922 c -3.2834,-0.407626 -4.53091,-1.341714 -5.16476,-3.867152 -0.84261,-3.357271 0.032,-13.484586 1.27159,-14.724196 1.23132,-1.231318 11.35652,-2.116823 14.67654,-1.283547 2.88683,0.724545 3.39447,1.792188 4.21543,8.865615 1.36085,11.725171 -0.17165,12.850039 -14.9988,11.00928 z m 38.81392,-0.64178 c -0.70164,-0.95004 -1.04703,-5.426611 -0.76755,-9.947935 l 0.50818,-8.220589 8.22058,-0.520407 c 4.71595,-0.298545 8.82071,0.07972 9.62826,0.887256 0.81109,0.811093 1.1847,4.939336 0.88157,9.740996 l -0.52609,8.333334 h -6.43919 c -3.54156,0 -7.29213,0.327305 -8.33463,0.727345 -1.04248,0.40004 -2.46949,-0.04996 -3.17113,-1 z m 43.95063,0.649464 c -0.86048,-0.591016 -1.97372,-4.69162 -2.47388,-9.112451 -1.19267,-10.541767 0.24878,-11.888644 11.34521,-10.600769 7.07343,0.820958 8.14107,1.3286 8.86562,4.215418 0.8702,3.467168 -0.0732,13.466161 -1.39522,14.788208 -1.28721,1.287216 -14.65561,1.867702 -16.34173,0.709594 z"
         id="path273" />
    </g>
  </g>
</svg>
